/* XPM */
static char *_4a2bae0366845f7c362d6f2ef5bde68kovME39fKFXPXJpa[] = {
/* columns rows colors chars-per-pixel */
"100 100 7 1 ",
"  c None",
". c #312504",
"X c #523C06",
"o c #BE910C",
"O c #F1C61E",
"+ c #F4D34B",
"@ c #F9F6EA",
/* pixels */
"                                                                                                    ",
"                                                                                                    ",
"                                                                                                    ",
"                                                                                                    ",
"                                                                                                    ",
"                                                                                                    ",
"                                                                                                    ",
"                                                                                                    ",
"                                                                                                    ",
"                                                                                                    ",
"                                        XXXXXXXXXXXXXXXXXXXX                                        ",
"                                        XXXXXXXXXXXXXXXXXXXX                                        ",
"                                        XXXXXXXXXXXXXXXXXXXX                                        ",
"                                   XXXXXooooooOOOOOOOOooooooXXXXX                                   ",
"                                   XXXXXooooooOOOOOOOOooooooXXXXX                                   ",
"                                XXXooOOOOOOOOOOOOOOOOOOOOOOOOOOooXXX                                ",
"                                XXXooOOOOOOOOOOOOOOOOOOOOOOOOOOooXXX                                ",
"                                XXXooOOOOOOOOOOOOOOOOOOOOOOOOOOooXXX                                ",
"                             XXXoooOOOOOOOO++++++++++++++OOOOOOOOoooXXX                             ",
"                             XXXoooOOOOOOOO++++++++++++++OOOOOOOOoooXXX                             ",
"                             XXXoooOOOOOOOO++++++++++++++OOOOOOOOoooXXX                             ",
"                             XXXOOOOOOOOXXX++++++++++++++XXXOOOOOOOOXXX                             ",
"                             XXXOOOOOOOOXXX++++++++++++++XXXOOOOOOOOXXX                             ",
"                           XXoooOOOXXXXXOOO++++++++++++++OOOXXXXXOOOoooXX                           ",
"                           XXoooOOOXXXXXOOO++++++++++++++OOOXXXXXOOOoooXX                           ",
"                           XXoooOOOXXXXXOOO++++++++++++++OOOXXXXXOOOoooXX                           ",
"                           XXOOOOOO++++++++++++++++++++++++++++++OOOOOOXX                           ",
"                           XXOOOOOO++++++++++++++++++++++++++++++OOOOOOXX                           ",
"                           XXOOOOOO++++++++++++++++++++++++++++++OOOOOOXX                           ",
"                           XXOOO+++........++++++++++++++........+++OOOXX                           ",
"                           XXOOO+++........++++++++++++++........+++OOOXX                           ",
"                           XXOOO+++........++++++++++++++........+++OOOXX                           ",
"                           XXOOO...@@@@@......++++++++...@@@@@@.....OOOXX                           ",
"                           XXOOO...@@@@@......++++++++...@@@@@@.....OOOXX                           ",
"                           XXOOO...@@@@@......++++++++...@@@@@@.....OOOXX                           ",
"                           XXOOO...@@@@@ooo...++++++++...@@@@@@oo...OOOXX                           ",
"                           XXOOO...@@@@@ooo...++++++++...@@@@@@oo...OOOXX                           ",
"                           XXOOO...@@@@@ooo...++++++++...@@@@@@oo...OOOXX                           ",
"                           XXOOO.....oooXXX...++++++++......oooXX...OOOXX                           ",
"                           XXOOO.....oooXXX...++++++++......oooXX...OOOXX                           ",
"                           XXOOO.....oooXXX...++++++++......oooXX...OOOXX                           ",
"                           XXoooOOO........++++++++++++++........OOOoooXX                           ",
"                           XXoooOOO........++++++++++++++........OOOoooXX                           ",
"                             XXXOOO+++++++++++OOOXXOOO+++++++++++OOOXXX                             ",
"                             XXXOOO+++++++++++OOOXXOOO+++++++++++OOOXXX                             ",
"                             XXXOOO+++++++++++OOOXXOOO+++++++++++OOOXXX                             ",
"                             XXXoooOO+++++++++XXX++XXX+++++++++OOoooXXX                             ",
"                             XXXoooOO+++++++++XXX++XXX+++++++++OOoooXXX                             ",
"                             XXXoooOO+++++++++XXX++XXX+++++++++OOoooXXX                             ",
"                                XXXooOOO++++++++++++++++++++OOOooXXX                                ",
"                                XXXooOOO++++++++++++++++++++OOOooXXX                                ",
"                                   XXXXXoooOOOOOOOOOOOOOOoooXXXXX                                   ",
"                                   XXXXXoooOOOOOOOOOOOOOOoooXXXXX                                   ",
"                                   XXXXXoooOOOOOOOOOOOOOOoooXXXXX                                   ",
"                                XXXOOoooXXXXXXXXXXXXXXXXXXXXoooOOXXX                                ",
"                                XXXOOoooXXXXXXXXXXXXXXXXXXXXoooOOXXX                                ",
"                                XXXOOoooXXXXXXXXXXXXXXXXXXXXoooOOXXX                                ",
"                             XXXOOO++++++++OOOOOOOOOOOOOO++++++++OOOXXX                             ",
"                             XXXOOO++++++++OOOOOOOOOOOOOO++++++++OOOXXX                             ",
"                             ooo+++oo++++++++++++++++++++++++++oo+++ooo                             ",
"                             ooo+++oo++++++++++++++++++++++++++oo+++ooo                             ",
"                             ooo+++oo++++++++++++++++++++++++++oo+++ooo                             ",
"                           XX++++++oo++++++++++++++++++++++++++oo++++++XX                           ",
"                           XX++++++oo++++++++++++++++++++++++++oo++++++XX                           ",
"                           XX++++++oo++++++++++++++++++++++++++oo++++++XX                           ",
"                        XXXoo+++OOOXX++++++++++++++++++++++++++XXOOO+++ooXXX                        ",
"                        XXXoo+++OOOXX++++++++++++++++++++++++++XXOOO+++ooXXX                        ",
"                        XXXoo+++OOOXX++++++++++++++++++++++++++XXOOO+++ooXXX                        ",
"                        XXX+++++oooXXOOO++++++++++++++++++++OOOXXooo+++++XXX                        ",
"                        XXX+++++oooXXOOO++++++++++++++++++++OOOXXooo+++++XXX                        ",
"                        XXX+++++oooXXOOO++++++++++++++++++++OOOXXooo+++++XXX                        ",
"                        XXX+++++XXXXXoooOOO++++++++++++++OOOoooXXXXX+++++XXX                        ",
"                        XXX+++++XXXXXoooOOO++++++++++++++OOOoooXXXXX+++++XXX                        ",
"                        XXX+++++XXXXXoooOOO++++++++++++++OOOoooXXXXX+++++XXX                        ",
"                           XXXXX   XXooooooooooooooooooooooooooXX   XXXXX                           ",
"                           XXXXX   XXooooooooooooooooooooooooooXX   XXXXX                           ",
"                           XXXXX   XXooooooooooooooooooooooooooXX   XXXXX                           ",
"                                     XXXOOOOOOXXXXXXXXOOOOOOXXX                                     ",
"                                     XXXOOOOOOXXXXXXXXOOOOOOXXX                                     ",
"                                     XXX++++++XXX  XXX++++++XXX                                     ",
"                                     XXX++++++XXX  XXX++++++XXX                                     ",
"                                     XXX++++++XXX  XXX++++++XXX                                     ",
"                                     XXX++++++XXX  XXX++++++XXX                                     ",
"                                     XXX++++++XXX  XXX++++++XXX                                     ",
"                                     XXX++++++XXX  XXX++++++XXX                                     ",
"                                     XXX++++++XXX  XXX++++++XXX                                     ",
"                                     XXX++++++XXX  XXX++++++XXX                                     ",
"                                        XXXXXX        XXXXXX                                        ",
"                                        XXXXXX        XXXXXX                                        ",
"                                        XXXXXX        XXXXXX                                        ",
"                                                                                                    ",
"                                                                                                    ",
"                                                                                                    ",
"                                                                                                    ",
"                                                                                                    ",
"                                                                                                    ",
"                                                                                                    ",
"                                                                                                    ",
"                                                                                                    ",
"                                                                                                    "
};
