/* XPM */
static char *eadb7166bd234dcb990f4fd47ef73bfbThy0CdypjKXo46br[] = {
/* columns rows colors chars-per-pixel */
"100 100 10 1 ",
"  c None",
". c #312504",
"X c #523C06",
"o c #972121",
"O c #CB1010",
"+ c red",
"@ c #BE910C",
"# c #F1C61E",
"$ c #F4D34B",
"% c #F9F6EA",
/* pixels */
"                                                                                                    ",
"                                                                                                    ",
"                                                                                                    ",
"                                                                                                    ",
"                                                                                                    ",
"                                                                                                    ",
"                                                                                                    ",
"                                                                                                    ",
"                                                                                                    ",
"                                                                                                    ",
"                                                           OOOoo                                    ",
"                                                           OOOoo                                    ",
"                                                         OO+++OO                                    ",
"                                                         OO+++OO                                    ",
"                                                         OO+++OO                                    ",
"                                                         +++++oo                                    ",
"                                                         +++++oo                                    ",
"                                         XXXXXXXXXXXXXXXXOOooo++OOO                                 ",
"                                         XXXXXXXXXXXXXXXXOOooo++OOO                                 ",
"                                         XXXXXXXXXXXXXXXXOOooo++OOO                                 ",
"                                    XXXXX@@@@@########@@@@@OOO+++++ooOOOoo                          ",
"                                    XXXXX@@@@@########@@@@@OOO+++++ooOOOoo                          ",
"                                  XX@@@#######################OOooo+++++OO                          ",
"                                  XX@@@#######################OOooo+++++OO                          ",
"                                  XX@@@#######################OOooo+++++OO                          ",
"                               XXX@@########$$$$$$$$$$$$$#######@@@OOOOO                            ",
"                               XXX@@########$$$$$$$$$$$$$#######@@@OOOOO                            ",
"                               XXX#######XXX$$$$$$$$$$$$$XX########XX                               ",
"                               XXX#######XXX$$$$$$$$$$$$$XX########XX                               ",
"                               XXX#######XXX$$$$$$$$$$$$$XX########XX                               ",
"                             XX@@@##XXXXX###$$$$$$$$$$$$$##XXXXX###@@XXX                            ",
"                             XX@@@##XXXXX###$$$$$$$$$$$$$##XXXXX###@@XXX                            ",
"                             XX#####$$$$$$$$$$$$$$$$$$$$$$$$$$$$#####XXX                            ",
"                             XX#####$$$$$$$$$$$$$$$$$$$$$$$$$$$$#####XXX                            ",
"                             XX#####$$$$$$$$$$$$$$$$$$$$$$$$$$$$#####XXX                            ",
"                             XX###$$........$$$$$$$$$$$$$.......$$$##XXX                            ",
"                             XX###$$........$$$$$$$$$$$$$.......$$$##XXX                            ",
"                             XX###..%%%%%.....$$$$$$$$...%%%%%.....##XXX                            ",
"                             XX###..%%%%%.....$$$$$$$$...%%%%%.....##XXX                            ",
"                             XX###..%%%%%.....$$$$$$$$...%%%%%.....##XXX                            ",
"                             XX###..%%%%%@@@..$$$$$$$$...%%%%%@@...##XXX                            ",
"                             XX###..%%%%%@@@..$$$$$$$$...%%%%%@@...##XXX                            ",
"                             XX###.....@@XXX..$$$$$$$$.....@@@XX...##XXX                            ",
"                             XX###.....@@XXX..$$$$$$$$.....@@@XX...##XXX                            ",
"                             XX###.....@@XXX..$$$$$$$$.....@@@XX...##XXX                            ",
"                             XX@@@##........$$$$$$$$$$$$$.......###@@XXX                            ",
"                             XX@@@##........$$$$$$$$$$$$$.......###@@XXX                            ",
"                               XXX##$$$$$$$$$$###XX###$$$$$$$$$$###XX                               ",
"                               XXX##$$$$$$$$$$###XX###$$$$$$$$$$###XX                               ",
"                               XXX##$$$$$$$$$$###XX###$$$$$$$$$$###XX                               ",
"                               XXX@@###$$$$$$$XXX$$XXX$$$$$$$$##@@@XX                               ",
"                               XXX@@###$$$$$$$XXX$$XXX$$$$$$$$##@@@XX                               ",
"                                  XX@@@##$$$$$$$$$$$$$$$$$$###@@XXX                                 ",
"                                  XX@@@##$$$$$$$$$$$$$$$$$$###@@XXX                                 ",
"                                  XX@@@##$$$$$$$$$$$$$$$$$$###@@XXX                                 ",
"                                    XXXXX@@@#############@@XXXXX                                    ",
"                                    XXXXX@@@#############@@XXXXX                                    ",
"                                  XX###@@XXXXXXXXXXXXXXXXXX@@@##XXX                                 ",
"                                  XX###@@XXXXXXXXXXXXXXXXXX@@@##XXX                                 ",
"                                  XX###@@XXXXXXXXXXXXXXXXXX@@@##XXX                                 ",
"                               XXX##$$$$$$$$#############$$$$$$$###XX                               ",
"                               XXX##$$$$$$$$#############$$$$$$$###XX                               ",
"                               @@@$$@@@$$$$$$$$$$$$$$$$$$$$$$$@@$$$@@                               ",
"                               @@@$$@@@$$$$$$$$$$$$$$$$$$$$$$$@@$$$@@                               ",
"                               @@@$$@@@$$$$$$$$$$$$$$$$$$$$$$$@@$$$@@                               ",
"                             XX$$$$$@@@$$$$$$$$$$$$$$$$$$$$$$$@@$$$$$XXX                            ",
"                             XX$$$$$@@@$$$$$$$$$$$$$$$$$$$$$$$@@$$$$$XXX                            ",
"                          XXX@@$$$##XXX$$$$$$$$$$$$$$$$$$$$$$$XX###$$@@@XX                          ",
"                          XXX@@$$$##XXX$$$$$$$$$$$$$$$$$$$$$$$XX###$$@@@XX                          ",
"                          XXX@@$$$##XXX$$$$$$$$$$$$$$$$$$$$$$$XX###$$@@@XX                          ",
"                          XXX$$$$$@@XXXooOOOOOOOOOOOOOOOOOOoooXX@@@$$$$$XX                          ",
"                          XXX$$$$$@@XXXooOOOOOOOOOOOOOOOOOOoooXX@@@$$$$$XX                          ",
"                          XXX$$$$$XXoooOO+++oo+++oo+++ooo++OOOooXXX$$$$$XX                          ",
"                          XXX$$$$$XXoooOO+++oo+++oo+++ooo++OOOooXXX$$$$$XX                          ",
"                          XXX$$$$$XXoooOO+++oo+++oo+++ooo++OOOooXXX$$$$$XX                          ",
"                             XXXXXooOOO++oooOO+++oo+++OOOoo+++OOoooXXXXX                            ",
"                             XXXXXooOOO++oooOO+++oo+++OOOoo+++OOoooXXXXX                            ",
"                                    ooo++ooo+++++oo++++++oo+++oo                                    ",
"                                    ooo++ooo+++++oo++++++oo+++oo                                    ",
"                                    ooo++ooo+++++oo++++++oo+++oo                                    ",
"                                       XX$$$$$XXX  XXX$$$$$XXX                                      ",
"                                       XX$$$$$XXX  XXX$$$$$XXX                                      ",
"                                       XX$$$$$XXX  XXX$$$$$XXX                                      ",
"                                       XX$$$$$XXX  XXX$$$$$XXX                                      ",
"                                       XX$$$$$XXX  XXX$$$$$XXX                                      ",
"                                       XX$$$$$XXX  XXX$$$$$XXX                                      ",
"                                       XX$$$$$XXX  XXX$$$$$XXX                                      ",
"                                         XXXXX        XXXXX                                         ",
"                                         XXXXX        XXXXX                                         ",
"                                         XXXXX        XXXXX                                         ",
"                                                                                                    ",
"                                                                                                    ",
"                                                                                                    ",
"                                                                                                    ",
"                                                                                                    ",
"                                                                                                    ",
"                                                                                                    ",
"                                                                                                    ",
"                                                                                                    ",
"                                                                                                    "
};
