/* XPM */
static char *_f8e23492a4b479deee49ceeab326d33dCGUEd5w3nuODOah[] = {
/* columns rows colors chars-per-pixel */
"19 32 10 1 ",
"  c None",
". c #312504",
"X c #523C06",
"o c #972121",
"O c #CB1010",
"+ c red",
"@ c #BE910C",
"# c #F1C61E",
"$ c #F4D34B",
"% c #F9F6EA",
/* pixels */
"             Oo    ",
"            O+O    ",
"            ++o    ",
"      XXXXXXOo+O   ",
"    XX@@###@@O++oOo",
"   X@#########Oo++O",
"  X@###$$$$$###@OO ",
"  X###X$$$$$X###X  ",
" X@#XX#$$$$$#XX#@X ",
" X##$$$$$$$$$$$##X ",
" X#$...$$$$$...$#X ",
" X#.%%..$$$.%%..#X ",
" X#.%%@.$$$.%%@.#X ",
" X#..@X.$$$..@X.#X ",
" X@#...$$$$$...#@X ",
"  X#$$$$#X#$$$$#X  ",
"  X@#$$$X$X$$$#@X  ",
"   X@#$$$$$$$#@X   ",
"    XX@#####@XX    ",
"   X#@XXXXXXX@#X   ",
"  X#$$$#####$$$#X  ",
"  @$@$$$$$$$$$@$@  ",
" X$$@$$$$$$$$$@$$X ",
"X@$#X$$$$$$$$$X#$@X",
"X$$@XoOOOOOOOoX@$$X",
"X$$XoO+o+o+o+OoX$$X",
" XXoO+oO+o+Oo+OoXX ",
"    o+o++o++o+o    ",
"     X$$X X$$X     ",
"     X$$X X$$X     ",
"     X$$X X$$X     ",
"      XX   XX      "
};
