/* XPM */
static char *_3dfbee25a194c82867b8c0d3f708c45xaccRrLr7zUewNCZ[] = {
/* columns rows colors chars-per-pixel */
"100 100 23 1 ",
"  c gray38",
". c #636163",
"X c gray39",
"o c #656565",
"O c #666466",
"+ c #676567",
"@ c gray40",
"# c #686768",
"$ c DimGray",
"% c #6A696A",
"& c #6B696B",
"* c gray42",
"= c #6C6B6C",
"- c #6D6D6D",
"; c #6E6D6E",
": c #706F70",
"> c gray44",
", c #717171",
"< c #727272",
"1 c #747374",
"2 c #747474",
"3 c #767576",
"4 c #777777",
/* pixels */
"======#=#=&--=&-:#O@ @ O @ OO       O  O    @ #XoX# XXXXXX--<>----<>->:>3>3---&&&###&-$$--$>->>>>444",
"======&#=#&=:-&-=#@ @ OOO O   @  O       Xo  # o ooXXXXXXX>*--->>---->>->3>>-&&&$$$X&$--$--<->>><444",
"=====:====#O@X@XO .. O         OOOO@OOOO#oo#o#XXXo oXXXXXX#o@@&##o&#$@@@O@&@@@@#$$&&--<--3<33<<>>>>>",
"====::====#OXXXX O.    O       @@@@@@####$$#o  #o # XXXX#XX#  @ Xo##& @OO@@@@@&&$$&&><<-<<<3><3->>>>",
"##########@   X    .  O        @X@-$-&-->>*>****$$-$$-$--$-$-$&&$-$$oo#$@@OOO &&&&=#>>>>-<3-<<<<>>::",
"@@@@@@@O@@@  X X O.     @      @@@>-:==-*>>*******-$$#-$$-$-&&$$----##oo@@O @@&@&###--:=->-<-<-$=-==",
"@@@@@@@@@O@ X X O  . O         @@@$>&>-:>*>>*****-$$$#$--$-$-$$$$--*#o#o@@OOO@#&@&@#=:=-$>--<---:=-=",
"@@@@@@@OO@@X X X ..   @        @@@->$&&=>******$$$-$-$-$$-$-$-$---$*@o#@@#OOO &@&@=#==-=-><<-<<-=-=:",
"@@@@@@X#@OO   O XX             @X@$-*-**-*<$***#$$&#$$&&-&$$$-$-$---####o##XX#$#@$#@-----<>><-<->->:",
"@@@@@@#XO@@@O  @ @ X @ @X @ @@ @@@--*$*******$$-$#&&$&#&&&#&$$&&$---$o#*$$o####$&X#$#$###$#$-$$-&&==",
"@#@@@@o#@O@@@@&&&@@@@@  X@@@@@&@#$&@#oXXXXoXXXXX#X# XX         XX$@@$#$$$$$#o#$#$#$######*$##$$$&#==",
"#@&@#@o#O@@#@@&&&@O @ @  @O@@ @@#@-$$oXXXXXXXXXXXX X X @ X XX X @@@#$##$-$$o#o$--$$$$$$#$-*$-$--$$::",
"#&##&&#o###@@@&@@@@O@X @XXX@ @@ X@###XXXXXXXXXXXXX X X    X  X X @#o$#$*$-$#$@$$&&$$$$&&$--$-$-$-$>>",
"&#&#&&&&&#@#@@X&@&@O@ O X@XXO @O#$$#@#XXXXXXXXXXXX# X X @X  X X oo$#$$#*-$$#@@$$&&$$&-&&-$$-$-$-$->>",
"$##&&&##@&@@@@##&@@@@ O  O@XOOO@##&&#oXXXXXXXXXX #             Xo#o##$o$$$$#@$**#$$$&$$&$$-$-$-$-$>-",
"#####@#@O#@@ @@@@@ @@  @  @ O   XXX # XXXXXXXXXXX o X  #  X # # XXXX#Xo###X&$@oo#o##&$--$-$-$-$-$->>",
"$###oo# @@oo o@@@o@@@o#X       O   X @XXX@XXXXX@ XXX   XXX@XXXXX@   OOX###X#@@ooX@@@#-$$$@@*$#*$#><<",
"#oo##ooo@*o#oo@@oo@@@@ooo#o#      &#&$$-$$>>$<-$-----$$--$$>-@@X @@@&&$-$$X#oooo@@XX@$$$$$@***$$-$<>",
"oooooo#o*@*@o@@@@$@@@$#oo ooX    @$-#$$$--$<<$$<----->>$$>--&@@ X@#o&@&$*$oo@ooo@X@@ #$#$$@@##$##$>>",
"o##o@ #o@@@@o@@@@@$@@@@oo#    X   #$$$#-$-<$><>>>->->$---$>$-@@@# X##&#$*$X#oooo@@ @@#@@##@@o###@$->",
"@@@@@@@ o$@@@@oo@@@@@@@@# o#      &##$-$->>$<->-->$->$-$--:=-@ @ooX &-$#**oo#oooXX@@o#@@##X#$@@$#$<$",
"@@@@@ @@o#@@@@@#@@*@@@@@o o   o  @@&$$$-$-$<$<---->-->>$-$&--@ @X##X&$#$**X#oo#o@@@X@@@@ooo#@@@$##>>",
"@@@@@@ @oo@@*$*o***@@@@@#o# # o #X&$$-$-$<<><$-$-$>>$>$-&----@@@Xoo#$#$-*-#oooo@@@@X@@@#####$@$@##$-",
"@@@@    @@@*******@@@@@@ oooo o@ #$$$#-$#$<$----$--$>--$$---&O@@o#X#$$-$**#Xo#o@@&@@@$@#@@##@@@@#$#$",
"@@@@o  oXXX@*#>><<*>********2>2><<>2222<<2<2<<<<$-$>$<<<<<3<<>>$>$>>$->-=:O@@@#@@&@@&&@&$####o@@#$$*",
"@@@@# o XXo$*$>>>>-******@**22223>222>2<2<2<<<<<<$---$<<<<<<<>><&>>-$>$>:= O  #O@@OO@@@X@#####@@oo##",
"@  @ oXXXXX$oo>>>>-->*****@*2>2><322<32<<2<3<<<<$->$$<<<<<3<<$$<=>-:>>--==O OOOO@@@@@#@##@#@@o@@#@o#",
"@@@@oXX XXX###--->--*@**@**@2>223-2>33-<2<2<<<<<-$-$-$<<<<<3<><$:=::-$>$=:@ O OO@@O #@#@@#@###@@#o#o",
"@@o# o #XX o$#>>>*>*>*@****@2222<3<3-2<<<<<<<<<<>---$-<<<<<<<>>$-::--===== O.OOOOOOO@@@##@#@@$@@oooo",
"$@#&#oooo##$#o>>>>*@******@*>2>2><<<3>3<3<3<<<<<$->->-<<<<<<<<><-::-:--&-:@   .OOO O#@#@@#@#@@@oo## ",
"@@$$o###o@##o#ooooooo*@***@***>*--3<<<<<<<<3<<3>>--->$$>>>$<>XXX @@ @ OO OO OOOO @##&@##@$@$@$#o ooo",
"@@$@o###$#$#o$#o#o   o*@@**@>**>>--3><3<3<<>3<>>-$-><$<<$>><$XXX @@@@@O OO O O OO####&##@@@@@@ooo##o",
"&&$&$$#$&@@@X# # o  o**o#-#---<$--<<<<<32>2>222>-*<>$<--->>$>XXX@@  @@@ @O OOO O @@@#####o#o#o$@ooo#",
"&&&&$#&$&@&#@#X o o  *#*$$$$<$-<--<<<<3>22222>>2---*<$--$-->-XXX @@@@  @O  O @O OOO@#@###oo###@o@#o#",
"o&-&$$##@##@###@oo o o#***$#$<-$-=>><<<32>2222>><$--$<<->$-$$XXX @ @@ @  @O @    OO O@##o o#ooo oo@o",
"##$$$#&&#=####X#o   o*$##*#$<$<*-:>3<<3>22>>>222$->-$<$$->>>>XXX @@@@  @  O   @  OOOOO@##o  o##ooo@@",
"#$$$$$#&#@&@@&@#oo  o#$*$***>-<-$<<<<<<3>2>22<2<<<--<$$<>$:=-@@ @@  ##XX@ @XXX @@@ OOO@@o oo@@@@o@@@",
"$$$--$$-=&##@X-->>>>><<<<<<<24<343#$$$$$********<$-$<$<$-&::>>>->>>>$-$$&&---->=- OO OOOoooo@@@@o@@@",
"$$-$$$&&&&@@@@>>>>>*><<<<<<<244444$#$#$-#*******$-$<$-<$$>-:-:---:>-$$&&&&$$->->-#@ @@@ oo@@@@@@@@@@",
"##$##&$&@@@@##>>>>>>><2<22<244224<$&$$#$********<-<$<$$<---::-:>>->--$&&&&--->>==O@ @@@@o#@@@@@@@@@@",
"###@#**#&@@@XX>>>>>>-<<<<<3<44444<-#$****$******$<<$<$$<>>>>>>>>>>>>-&&$&=:--<>2>-&&*@@@@@o##o@@@@@@",
"X#o##$*$@@@XXX>>>>->>2<2<3<<442444$$#*#**#******<<$$$<$$--$>>-$>-->--$-&$=--->>>>:&$@@@@@@#oo#@@@$@@",
"###$oo**&@O@XX->>>>>>22<<<<<3344<4-#**********>*-<<<<<<<>->>>$>->><<-&$--$->-<>>>@$$>*$*$$@@#*****->",
"o#oo@**#@@ OXX>>>>>>>222<3<>334244>$**>****>*>**<--<<-<<>>>>>>>>-------------<>>>#&-*>@@@@$@*$#*-***",
"@@ @@@@@OO Oo ooooo##>->->>>--$-*>******>>>>>>><<-<<-<444<4<<<<3<<33-->>>-@@##$$$#*****@-#$@$@**>**>",
"&@@@@@@@@ O  oooo#ooo>----->-$-$**>**>*>*>>>>><>-<<<<-<444<3<4<33><<->->>>-&@o#$$#$$**#oo#@o$$*>****",
"@ @@@o # @ oo @@oo#oo>>*-<$<$--$**>**>***>>>>>><-<-<<<<4<43<<4<<<3<<:=-->>@@####$####ooo#ooo-#$*>***",
"@@X#  o @XXo o@oo#o#X>*>$><-#$$-*********>>>>>>><<-<-<4<4<3<<<<33<<>>&--&-@@#oo###oo#X#Xoo o##$$$@**",
"@@@OOO OOO.O.OOO@@&@@->-->->-$-$$<-*---*->>>>><><<-<>><<3<2<2<2<<<<<->-->$#@#@@#@@@X@XXXooo#$#$&@$-*",
"O  O @O    +.OO@##@@@->---:-$$$-****$$--$>><><<<<<-<<$<<<4<<<2<2<<<<>$--->@@##@$$@@@@XX@XXXo*-$$*$$#",
"@#&@@@O@======#=-$-&$$-$$&@=<2<2<<2443324<<<<<<43<<<<>44444<<>>>>>>>>>>>>>>$$-$<->>>--$-oo#o**-$$$**",
"@@@@@@ O###&##==--$$&$&$#-$&2<2<3<23<33<4><<<<4<<<<-->2444444>**$>-$>>>>>>$--$-$$>&>----X###**$$*$##",
"##@&@@OO&=&&=#==&$&&&&=&$-&-<<22<222<3<3<>>>>>&<<<<>$<344<444>**>$>>>>>>>>&&#&&$--->-$-$ooo#***-$#@-",
"##&@@@@O##&&==#=-&-&-===-$&&<<2<2<<23<3<<>>>>>>$$<$<<-44444<4**>-$>->>>>>>&&#&&-&$-$->--oo@@***$$#@$",
"&#@@@#@O=#&&&&==&$&&&-==--&-32<22<2<<3<<<>>-=>-=<<$$$$4344444>>>&>>:>>>>>>=&$$#$&&$--$-*@@@@*****#o$",
"##&@#@OO#=&&&&&&-&$&-&==$-&$<32<<2<23<<<<>$>>>=>>$<><$434<44<*>*>--->>>$->@&$$$$&-&-$-$$#@@@*****#@@",
"&@@@@@@&=#==#&&=&&&&&-==-$$&<<<<2<<<<<<<>>->>----<-><*3324244---->$->>>>>--$&&&&&-&==&&=O@@@&&$*$$$o",
"@>>>:---=::-::OOOO@O@&==----<>>>>>$---$-->>$$>=-2323233322442><->$>>>>>>>>$$$$&&$ O  O @O  O#&$$$o#o",
"&-->::>-::=:::O OO@O@------->>>>><$$-$-$$>>>>:--3334334344223---&>->>>>>>>$-$-&--@ OO O  O@ &@&###o#",
"#>3>3><31::>:=OOO@@@@&-=$&$->>$>--$-$-$-->$>>-->4324332424444->>>=>->>>>->-$-$=:- @  O O@@@@@@X#@@##",
"#>>>3>>>>>->::#@O@@O@-&---&-$>>->>$->--$$>>>>---2244424433343-:--->->>>>>>-$-=-:>$&&####$$$##oo#@@@@",
"@-><>3>>>>>:::#@@@OO &-&--$&>>>>>>>>--$-->>->-<<44424242433<<-:--->->>>>>>$-=--:>$&&####$$-#@#$#@@@@",
"#><>3>>>>>:-::#@O@@O@=&-&--=>>>>>>>>---$$>>>>---4442442433334-=:-:>->>>>>>---=--3-$-&#&&$$*@#*@-@@@@",
"#<><>3>>>>::::@O@@OO@=-&-&--->>><<>>>>--->-->>->224424442434<--&$>&>>>>>>>-----3<--&&&&&$$$@@#$@$@@@",
"#####@$#*@@@*@@@oo#o#-->><<--->>>>4443<<3<>>>->-><<<<<>-**--*>--<$->$-$-$-X@X@@--===##&&&&&@@#&@@$@@",
"o##X####@@@@@>**$#oo#><>-<3-<>->>>3<4>3<<-<$>---<<<<3>->>>>*---$-<--#$$@-$X#X@@@@@O#@@#&&@@@##@&@o@@",
"##o##@oo@@@@@**@$$@@#->><-<<-->>>:<<<3><>---$>>&<<<<3>>>>*>*<$<<><->#$-$$$@@@@@@OOO  @@@@@OOO@@@o##$",
"#$##@$@#*@@@@-@*$@@@#>2><<3->>>---<3<<3<<---->$=<<<<3>->*>>>$<>$$-->$&&&@&XXXX@XOO OO @@@@@O O @XX#*",
"&@@&$$-&$#o*#*$#@-*oo>>>-3>>>>---->>>31>3-:#:==><<<<<3->>>**>**>----$&&&&&X@@ OOO  O O@ @@@OOO @oX#-",
"&&#@$$&@#oo@$*#**#o#o>><>>>>:>:--$3>31>1>--==::=<<<<3<>>*>>>*>>-:---$-&&&&XX @ @O  O@ @@O O@O  OXXo$",
"&@@@@&#@oooo#@****#oo->->>>>$$&&$-&-->:=----=-:-$$$#-$>>>>>$>o#X@ @ oooX@    @O  O   @@@@@@  @O Xo#*",
"@@OO@@@@oXooo#*#**$#$>-->>>--&&&@&->:--:>:---===$##-$->->>*>>XXX @   XX# @@    @O  O@ @ @ O@@ O@X##*",
"@O@OO@O@#####@$$***o#<*>--=-==&&&&---:==:-:---$<-$-#**<>---<-XX#O  @ @ @ @      X X  ooo@X@@X@@X#Xo-",
"O@O@@OO@######-$***##*---:=:=:&$$&----:=====->-$$-$$**-><--->XXX    @ @@@    @ @ X    oo@@X@@@@@##$$",
"@O@OO@O#@&@&##&&****o-----::-$$-&&->>-:::=----<>$<<$**->>>->-XXX    @@ @@@ O    X XXXoXo @X@X&&&&$#$",
"O@O@@OO@&@&@###&**$##>--:--->>-$=---:---=::--:$>$-$-**--><$>>XXXO  O@ @  @   @   X    oo@ @@$&&@$$$$",
"@O@@O@O#@&&@&@&&****o>>--*>>$<$--&--:---:---<-->-$-$**->$<*->XXX    @@@@@   @ @ X X X XXoXoo$-#$$#$$",
"@@@@@OO#&@@@X&&@o**#oo@@##oo#$-$&@#@@@O@O==:--$<$#oo##@@###o#XXo @@    @         X XXXoXXooo#$$#*##$",
"@@#@###O@@@@@ @@@@oooo#o#oo##$$#@@@@@O @@==->$<*##XXoo#o#o#XXXoo@O@@@       @   X X XXXooXX##*$#$-$@",
"&-=&=#=#@@@@@@@ @@o oooo#oo##$##@ @@@ O @:-=--$-X#o##o ooXXo#o#X@@@  @   @ @   @ X XXXXXXXXo#@##@$$o",
"&&&-$$&@O@O@@@@@#o#  @@@@@@@X@@@#oooooooo*>***** @ @ @ O#@@ @@@@@XX@@    . . O  #  @O @@ @@ @@ @ooXX",
"$-$&-&$@@O@O@@@ o  X@@@@@@X@@@@@ooooooooo**>>*>*@X@X@ @@ @ @@ @@@@@@ @  . .    O X@         @@@@oXXX",
"$-&$&-&&O@O@O@o@ @#XX@@@XX@@@@@@ooXoooo @**>*>-*X@ @X@@ oo@@@ @ X@@XO O  . . .       @@ @  @ @@ o#XX",
"---&$&&@@O@O@Oo#@@@X@@@@@@@XX@@@o#oXoooo@*>*--*$@ @X@  O # @@@@@X@@@ O  . . .  OOO @O  @ @@ @@@@XoXX",
"@&->>>>-@&@&#$$#OO O @@ @  @ @ XXX X X XooooXX X @   @     #  @  XXXO    . .     OO O @ @  @@ @@X#XX",
"@@>>>>>-&&#&---#@@@O@ XX @   X  XXX XXXXo  oXXXX       @X o @  @@      O. . O  O    O     @ @@@@ooXX",
"@@-$$--$$$&&**-*@@#@ XXXXX  X X XXXoXXXX oooX oo  @  @X  o@  @@  @X O  O.  .   @O  O      @ @  @XXo#",
"&@&--$$#$$&$**-*&X@  XXXXX@X X Xooo#@#XXo XXoo o@@ @o# #o #X @   X X             OO O @    @ @  XX#*",
"@@-&$&$&**#*****@O@ XXXXXX@  @  oXoo#ooXX@X@@X@X@ @@ @@ # o #  @ X X X X       @XXXX@ X @   @  @XXo$",
"@@&$&-&&**$***-*&@@@XXXXXX      #X#o#oXo@ @  @ @ @ @@  @o  oo o X X X X        XXXXX @ X  @  @@ X#o$",
"@@$&-$$&$#$$*>*$@@@ XXXXXXX@ @@ oo##$@@o@ X@@X@ @@  @@@@ oo   #  X X X X        XXXXXXX   @@    XX#-",
"-&&-&$&#-$###**#@@@XXXXXXX      X#&$$#@@@@@@ @X@@ @@  @ #o #o  oX X X X       X@XXXXXX  @   @@ @XX#$",
"-$-$&$$$##X$##@##@O @XXX  O @O O##$---@@@@ @@ @ @X@X@@ @o   XXXX  @   @        OXXXX @ XXXX   @ oXo-",
"$$#-&$$-&&$##@###@OO @XX@O    OO&@$$-$&X@ @  @X@ @ @       oXXXX@   X           XXXX@  XX @@@@@@X#$$",
"-$#$$#-&&@&##@####@#&@@@@@@OOOO@&&&&-@@@@   XXXX@        # XXXXX      @ XXX @  OO  @ @@@@@@@&@@@&&><",
"$-$-$-$$&&@###@#####&@&@@@ O O@O#&$->@@@@@  XXXXXX@X   O o XXXXX@ O   O XXXO @ O  O  @@@@@@&@&&&&&>3",
"-$-$$$$$$#@*@@@$$#@#$$oo##o @X#o@$$--##X#X XXXXXXXXX X X X XXXXX      OO @XXXX @ O  O @@@@@@#&&#$$>>",
"$##@####o#@#@$@@###$$##ooooo@@##$*-$$XXXXXX XXXXXXX X X X XXXXXX@  @    O XXXXO O  O O@@@@@&&-##$$-3",
"###o#$##$***$#$-$***$###@@ o@***-$$-#oXXXXXXXXXXXXXX X X X #XXX    O @ @ XXXO   O   O @@@@@&$$&&$$<<",
"$$$$$$$-*****-$*****$-@#@@@@@*---#&&&XXX X XXXXXooXXX X X X XXXo@ @   O O XX O @ OO@O&@&&#&$$$$$$-3<"
};
