/* XPM */
static char *_c876e7430a740e5a27dabd2c1cef9a5nQ1A8XNpu0om44oT[] = {
/* columns rows colors chars-per-pixel */
"100 100 14 1 ",
"  c None",
". c #0C6624",
"X c #B71C1C",
"o c #D50000",
"O c #D32F2F",
"+ c #E53935",
"@ c #FF1744",
"# c #EF5350",
"$ c #FF5252",
"% c #22B14C",
"& c #1EE656",
"* c #FFC107",
"= c #FFEB3B",
"- c #FF8A80",
/* pixels */
"                                                                                                    ",
"                                                                                                    ",
"                                                                                                    ",
"                                                                                                    ",
"                                                                                                    ",
"                                                                                                    ",
"                                                                                                    ",
"                                                                                                    ",
"                                                                                                    ",
"                                                                                                    ",
"                                                                                                    ",
"                                                                                                    ",
"                                                                                                    ",
"                                                                                                    ",
"                                                                                                    ",
"                                                                                                    ",
"                                                                                                    ",
"                                                                                                    ",
"                                                                                                    ",
"                                                                                                    ",
"                                                                                                    ",
"                                                                                                    ",
"                                                                                                    ",
"                                                                                                    ",
"                                                                                                    ",
"                                                                                                    ",
"                                                                                                    ",
"                                                                                                    ",
"                                                                                                    ",
"                                                                                                    ",
"                                                                                                    ",
"                                                      -------                                       ",
"                                                      -------                                       ",
"                                                      -------                                       ",
"                                               @@@@@@@----###$$$$$$$                                ",
"                                               @@@@@@@----###$$$$$$$                                ",
"                                               @@@@@@@----###$$$$$$$                                ",
"                                               oooo@@@@@@@$$$$$$oooo                                ",
"                                               oooo@@@@@@@$$$$$$oooo                                ",
"                                               oooo@@@@@@@$$$$$$oooo                                ",
"                                            #######ooo====***ooo#######                             ",
"                                            #######ooo====***ooo#######                             ",
"                                            #######ooo====***ooo#######                             ",
"                                            #######ooo====***ooo#######                             ",
"                                            OOOOOOO$$$*******@@@OOOOOOO                             ",
"                                            OOOOOOO$$$*******@@@OOOOOOO                             ",
"                                            OOOOOOO$$$*******@@@OOOOOOO                             ",
"                                               $$$$$$$ooooooo@@@@@@@                                ",
"                                               $$$$$$$ooooooo@@@@@@@                                ",
"                                               $$$$$$$ooooooo@@@@@@@                                ",
"                    ....                       ooooooo@@@@+++ooooooo                                ",
"                    ..&...                     ooooooo@@@@+++ooooooo                                ",
"                    .&.%&..                    ooooooo@@@@+++ooooooo                                ",
"                    ..%.%&..                     ..%. XXXXXXX                                       ",
"                    ..%%.&%.                    ..%.  XXXXXXX                                       ",
"                    ..%%.%&.                   ..%.   XXXXXXX            ...                        ",
"                     .%%.%&%.                 ..%.              ............                        ",
"                     ..%%.%&.                ..%.             ...&&&&%%....                         ",
"                     ..%%%.%.                .%..           ...&&&%%%%..%..                         ",
"                     ...%%%..              ..%..        .....&&&%%%%......                          ",
"                      ..%%%..            ..%%..      ....%%%%%%%%....%%..                           ",
"                       ...%%.            .%%..    ....%%..........%%%%..                            ",
"                        ...%.         ...%.. ......%%%....  ..........                              ",
"                          .%.        ..%%.....%%%%%....                                             ",
"                          .%.       ..%%%%%%%........                                               ",
"                          .%.     ...%........                                                      ",
"                          .%.    ..%...                                                             ",
"                          .%.   ..%..                                                               ",
"                          .%.  ..%.                                                                 ",
"                          .%....%..                                                                 ",
"                          .%..%%..                                                                  ",
"                          .%.%..                                                                    ",
"                         ..%%..                                                                     ",
"                       ...%%..                                                                      ",
"                      ..%%..                                                                        ",
"                    ..%%...                                                                         ",
"                   ..%...                                                                           ",
"                  ..%..                                                                             ",
"                ...%..                                                                              ",
"               ..%...                                                                               ",
"              ..%..                                                                                 ",
"            ...%..                                                                                  ",
"           ..%..                                                                                    ",
"          ..%...                                                                                    ",
"         ..%..                                                                                      ",
"         %...                                                                                       ",
"          .                                                                                         ",
"                                                                                                    ",
"                                                                                                    ",
"                                                                                                    ",
"                                                                                                    ",
"                                                                                                    ",
"                                                                                                    ",
"                                                                                                    ",
"                                                                                                    ",
"                                                                                                    ",
"                                                                                                    ",
"                                                                                                    ",
"                                                                                                    ",
"                                                                                                    "
};
