/* XPM */
static char *_f59c628c3cf4f6982d4c41242434820EZabPLkJWakzcxXV[] = {
/* columns rows colors chars-per-pixel */
"100 100 8 1 ",
"  c #0C6624",
". c gray50",
"X c #C40424",
"o c #ED1C24",
"O c #F75B63",
"+ c #22B14C",
"@ c #F26F9B",
"# c gray63",
/* pixels */
"################+   + ##########.###############+  ##############.......###########################.",
"################++++  #######.##.###############++ ##############..################################.",
"#################+++  ######..##.################+  #############.#################################.",
"##################++  ######..##.################++ #############.#################################.",
"###################++  #########.################++ #############.#################################.",
"###################+++  ########.#################+  ############.#################################.",
"###################+++++ #######.#################++ ############.#################################.",
"###################++++++ ######.#################++ ############.#################################.",
"####################++ +++ #####.#################++ ############.#################################.",
"####################++ #+++  ###.#################++ ############.#################################.",
"####################++ ##+++  ##.#################++ ###  #######.#################################.",
"#####################+  ###+++  .#################++ ##    ######.#################################.",
"#####################++ ####+++   ################++ #     ######.#################################.",
"#####################++ ####+++++  ################+      #######.#################################.",
"#####################++ ######++++   ##############+     ########.#################################.",
"#####################++ #######+++++ ##############+  ###########.#################################.",
"#####################++ ########.++++  ############+ ############.#################################.",
".####################++ ########..++++  ###########+ ###########..#################################.",
".....################++ ########..#+++++  #########+ ##########...#################################.",
".....................++ .............++++  ........++ ..............................................",
"###..###########.###+++ ###############+++  ####.##++ ###########################.##################",
"################.###++ #################+++ ####.##++ ###########################.##################",
"################.###++ ##################++  ###.###+ ###########################.##################",
"################.###++ ###################++ ###.###+ ###########################.##################",
"################.###+  ####################++  #.###+ ###########################.##################",
"################.###+ ######################++  .###+ ###########################.##################",
"################.##++ ######################+++  ###+ ###########################.##################",
"################.##++ ########.##############+++  ##+ ###########################.##################",
"################.##+  ########.###############+++ ##+ ###########################.##################",
"################.#++ #########.################++  #+ ###########################.##################",
"################.#+  ##########.###############+++  +  ##########################.##################",
"################.#+ ###########.################+++ ++ ##########################.##################",
"################@@+ ############.###############.++  +@@@@@######################.##################",
"################@@@@@@##########.###############.#+@@@@OOOO######################.##################",
"###############@@OOOO@###########.#########.####.##@@OOoo@@@#####################.##################",
"###############@OooOOO###########.#######..#####.##+@@@XoO@@#####################.##################",
"##############@@Oooo@@############.#####.#######.##+@@@OOO@######################.##################",
"##############@@@@@@@##############.##..########.#+++ @@@@@######################..#################",
"################.+ #.##############.#..#########.#+++ ++ #######.################...##########......",
"................++ ...............................++ .++ ...........................................",
"################+ .....#########.###.#############++ #++  #######..################################.",
"###############++ ###.##########.###.############+++ ##++ #######..################################.",
"###############+  ##############.###.############++ ###++  ######..################################.",
"###############+ ###############.###.############++ ####++ ######..################################.",
"##############++ ###############.##..############++ ####+++ #####.#################################.",
"##############++ ###############.#..############++  #####++  ####.#################################.",
"#############+++ ###############...#############++ ######+++  ###.#################################.",
"#############++  #############....#############++ ########+++ ###.#################################.",
"#############++ ##############.#.##############++ #########++  ##.#################################.",
"#############++ ################.##############++ #########+++ ##.#################################.",
"#############++ ################.#############+++ ##########++  #.#################################.",
"#############+ #################.#############++ ############++ #.##  #############################.",
"############++ #################.############++  ############++  .#    ############################.",
"############++ #################.###########+++ ##############++  #    ############################.",
"############++ #################.###########++  ###############++ #    ############################.",
"############++ #################.##########++  ################++     #############################.",
"###########++ ###  #############.##########++ ##################++   ##############################.",
"##########+++ #     ############.##########++ ##################+++ ###############################.",
"##########++        ############.#########++ ##....##############++  #########......###############.",
".........++  ..   ........................++ .....................++  ..............................",
"########++  ###........###################++ ##.....###############++    ########.##################",
"#######+++ #####.########################+++ ##...##################++++   ######.##################",
"######+++ ######.########################++  ##...###################+++++   ####.##################",
"#####+++  ######.########################++ ###..######################+++++    #.##################",
"###++++  #######.#######################++  ###..#########################+++++       ##############",
"++++++  ########.#######################++ ####.##############################++++++++            ##",
"+++++  #########.######################++  ####.#################################++++++++++++++++++ ",
" +    ##########.######################++ #####.#################################.###+++++++++++++++",
"################.#####################++  #####.#################################.#########+++++    ",
"################.#####################++ ######.#################################.######++++++   ###",
"################.#####################+ #######.#################################.####++++++  ######",
"################.####################++ #######.#################################.###++++   ########",
"################.###################++  #######.#################################.#++++   ##########",
"################.##################+++ ########.#################################+++++  ############",
"################.##################++  ########.###############################+++++  ##############",
"################.#################+++ #########.############################++++++   ###############",
"################.################+++ ##########.##########################+++++    #################",
"################.###############+++ ###########.########################+++++   ..##################",
"################.##############+++  #########...######################+++++  ##....#################",
"...............................+++ .................................+++++   ........................",
"...###########################+++  ###........##################@@@@@++   ######..##################",
"..###########################+++  #############################@@OO@@   ############################",
".###########################++++ ##############################@OooOO@##############################",
"############################+++ .##############################@OOOOO###############################",
"###########################++++ .#############################+++@@@@###############################",
"##########################++++  .############################+++   #################################",
"##########################++++ #.##########################++++   .#################################",
"#########################++++  #.########################+++++  #.##################################",
"#########################+++  ##.#######################++++   ##.##################################",
"########################++++ ###.######################+++    ###.##################################",
"#######################++++  ###.#####################+++   #####.##################################",
"#######################++++ ####.###################++++  #######.##################################",
"#######################+++ #####.##################+++   ########.##################################",
"#######################++  #####.#################+++  ##########.##################################",
"######################+++ ######.################+++  ###########.##################################",
"######################+++ ######.################+++ ############.##################################",
"######################+++ ######.###############+++  ############.##################################",
"######################+++ ######.###############+++ #############.##################################",
"######################+++ ######.###############++  #############.##################################",
"......................+++ ......................++  ................................................"
};
